<!--?xml version="1.0" encoding="utf-8"?-->
<!-- Generator: Adobe Illustrator 19.1.1, SVG Export Plug-In . SVG Version: 6.00 Build 0)  -->
<svg version="1.1" id="_x31_0" xmlns="http://www.w3.org/2000/svg" xmlns:xlink="http://www.w3.org/1999/xlink" x="0px" y="0px" viewBox="0 0 512 512" style="width: 256px; height: 256px; opacity: 1;" xml:space="preserve">
<style type="text/css">
	.st0{fill:#374149;}
</style>
<g>
	<path class="st0" d="M204.207,278.746l15.422,44.722c0.222,0.664,0.668,1.11,1.278,1.442c0.301,0.137,0.641,0.031,0.961,0.054
		c0.05,0.004,0.102,0.035,0.152,0.035l0.118-0.019c0.242-0.008,0.469,0.125,0.711,0.042l0.777-0.277
		c0.664-0.223,1.11-0.668,1.442-1.278c0.278-0.61,0.336-1.278,0.114-1.942l-15.426-44.722c-0.222-0.664-0.664-1.106-1.277-1.442
		c-0.664-0.274-1.274-0.332-1.942-0.11l-0.778,0.278c-0.664,0.222-1.164,0.664-1.442,1.274
		C203.984,277.418,203.984,278.086,204.207,278.746z" style="fill: rgb(75, 75, 75);"></path>
	<path class="st0" d="M262.183,512c24.008,0,54.024-2.504,77.274-9.738c0.61-0.187,1.211-0.382,1.813-0.574
		c1.546-0.507,3.07-1.019,4.546-1.57c1.703-0.629,3.352-1.293,4.958-1.988c0.546-0.238,1.106-0.469,1.641-0.714
		c1.992-0.91,3.886-1.887,5.695-2.918c0.363-0.211,0.718-0.422,1.074-0.633c1.79-1.07,3.493-2.191,5.047-3.39
		c0.309-0.238,0.582-0.489,0.879-0.73c1.25-1.016,2.41-2.078,3.472-3.192c0.462-0.476,0.906-0.961,1.333-1.457
		c0.828-0.98,1.574-2.004,2.25-3.058c0.465-0.715,0.902-1.438,1.293-2.184c0.356-0.695,0.629-1.426,0.914-2.148
		c0.566-1.398,1-2.844,1.289-4.348c0.062-0.332,0.106-0.679,0.153-1.019c0.148-1,0.426-1.953,0.449-3.004l17.574-204.508
		l8.566-98.781c-0.027,0.007-0.054,0.019-0.082,0.031l0.016-0.18c-1.942,0.887-3.938,1.722-5.988,2.496
		c-5.329,2.11-11.043,3.996-16.981,5.66c-46.164,13.149-105.527,14.203-123.34,14.203c-17.922,0-77.789-1.054-124.062-14.367
		c-5.938-1.722-11.649-3.664-17.031-5.828c-1.715-0.617-3.402-1.359-5.043-2.141c-0.218-0.129-0.469-0.23-0.675-0.367l0.003,0.082
		c-0.05-0.027-0.113-0.043-0.168-0.07l24.692,298.61c0.722,35.121,74.957,46.5,119.566,47.664
		C256.137,511.946,259.137,512,262.183,512z M171.882,275.668c0.84-0.106,1.684-0.137,2.528-0.082
		c1.777,0.168,3.386,0.555,4.882,1.332c1.5,0.723,2.887,1.719,4.051,2.997c1.164,1.332,2.054,2.832,2.664,4.55l2.718,7.879
		c0.332,0.941,0.11,1.66-0.668,2.218l-8.543,4.492c-0.718,0.61-1.277,0.387-1.609-0.5l-3.328-9.598
		c-0.223-0.664-0.61-1.164-1.278-1.441c-0.61-0.333-1.219-0.387-1.886-0.114l-0.778,0.222c-0.664,0.278-1.164,0.668-1.442,1.278
		c-0.332,0.664-0.386,1.274-0.168,1.942l15.481,44.722c0.222,0.66,0.613,1.164,1.277,1.438c0.61,0.336,1.223,0.336,1.887,0.113
		l0.832-0.277c0.61-0.223,1.11-0.614,1.442-1.274c0.277-0.614,0.332-1.222,0.113-1.89l-4.828-13.871
		c-0.278-0.942,0-1.387,0.946-1.442l9.43-1.882c0.942-0.059,1.61,0.386,1.886,1.328l4.274,12.371
		c0.61,1.722,0.832,3.441,0.718,5.164c-0.164,1.773-0.609,3.382-1.332,4.878c-0.218,0.461-0.515,0.883-0.789,1.317
		c-0.359,0.562-0.758,1.086-1.191,1.578c-0.344,0.391-0.664,0.801-1.066,1.157c-1.278,1.168-2.778,2.054-4.496,2.664l-3.774,1.278
		c-0.754,0.266-1.504,0.43-2.254,0.55c-0.164,0.027-0.328,0.066-0.492,0.086c-0.805,0.098-1.609,0.133-2.414,0.082
		c-1.778-0.164-3.387-0.61-4.883-1.328c-0.457-0.222-0.878-0.52-1.312-0.793c-0.563-0.36-1.086-0.758-1.582-1.192
		c-0.39-0.347-0.801-0.664-1.156-1.07c-1.164-1.273-2.051-2.773-2.664-4.492l-15.754-45.718c-0.613-1.719-0.832-3.442-0.722-5.16
		c0.164-1.778,0.61-3.387,1.332-4.883c0.718-1.55,1.718-2.886,3.05-4.05c1.278-1.164,2.774-2.055,4.497-2.664l3.769-1.329
		c0.829-0.27,1.657-0.449,2.481-0.562C171.782,275.683,171.832,275.676,171.882,275.668z M206.996,263.531
		c0.844-0.106,1.691-0.121,2.535-0.043c1.778,0.114,3.386,0.559,4.883,1.278c1.554,0.722,2.886,1.778,4.05,3.054
		c1.222,1.274,2.11,2.774,2.664,4.493l15.813,45.718c0.554,1.719,0.777,3.442,0.664,5.215c-0.164,1.718-0.555,3.386-1.328,4.882
		c-0.723,1.496-1.723,2.828-3,4.051c-1.329,1.168-2.829,2.05-4.547,2.66l-3.718,1.281c-0.821,0.29-1.637,0.477-2.462,0.594
		c-0.058,0.007-0.117,0.023-0.175,0.031c-0.852,0.102-1.707,0.121-2.578,0.038c-1.718-0.113-3.386-0.558-4.882-1.277
		c-1.5-0.774-2.829-1.774-4.051-3.051c-1.164-1.277-2.05-2.774-2.664-4.496l-15.754-45.714c-0.614-1.723-0.836-3.442-0.668-5.219
		c0.109-1.718,0.554-3.382,1.277-4.882c0.719-1.496,1.774-2.828,3.051-4.047c1.277-1.168,2.774-2.054,4.492-2.664l3.774-1.278
		c0.828-0.293,1.652-0.484,2.477-0.598C206.898,263.55,206.946,263.539,206.996,263.531z M245.484,279.637l9.821-3.383
		c0.886-0.336,1.5,0,1.832,0.942l3.05,8.766c0.336,0.946,0,1.555-0.886,1.887l-9.61,3.312l-0.062,0.02h0.004l-0.152,0.05
		l10.542,30.461c0.278,0.946,0,1.555-0.945,1.887l-8.766,3.054c-0.946,0.278-1.555,0-1.887-0.946l-22.969-66.469
		c-0.277-0.945,0-1.554,0.942-1.886l21.473-7.434c0.886-0.278,1.554,0,1.832,0.942l3.05,8.82c0.332,0.89,0,1.5-0.886,1.832
		l-11.043,3.793l-0.125,0.039v0.004l-0.152,0.051l4.863,14.038l0.023,0.066l0,0L245.484,279.637z M341.473,246.512l9.82-3.383
		c0.887-0.336,1.555,0,1.832,0.942l3.051,8.77c0.332,0.942,0,1.55-0.891,1.882l-9.656,3.332l-0.012,0.004l0,0l-0.152,0.051
		l6.906,20.004l0.031,0.094h0.004l0.05,0.152l11.321-3.882c0.886-0.278,1.554,0,1.828,0.941l3.054,8.766
		c0.332,0.946,0,1.555-0.89,1.887l-21.469,7.438c-0.946,0.277-1.554,0-1.886-0.942l-22.973-66.469c-0.278-0.946,0-1.558,0.945-1.89
		l21.473-7.434c0.942-0.278,1.551,0,1.828,0.942l3.051,8.769c0.336,0.942,0.058,1.551-0.887,1.883l-11.262,3.886l4.778,13.954
		l0.05,0.152l0,0L341.473,246.512z M247.512,369.317l100.785-40.856v41.004H295.77L247.512,369.317z M283.547,250.562l-11.126,3.817
		l-0.042,0.015l0,0l-0.149,0.051l4.938,14.262l9.762-3.387c0.946-0.277,1.554,0,1.886,0.946l3.055,8.766
		c0.332,0.942,0,1.551-0.946,1.886l-9.602,3.329l-0.015,0.004l0,0l-0.149,0.054l10.488,30.457c0.333,0.946,0.055,1.555-0.886,1.887
		l-8.824,3.05c-0.887,0.278-1.555,0-1.832-0.942l-22.969-66.469c-0.332-0.941,0-1.554,0.886-1.886l21.527-7.438
		c0.891-0.274,1.5,0,1.832,0.946l3.051,8.824C284.77,249.621,284.434,250.23,283.547,250.562z M308.848,257.778l9.766-3.387
		c0.941-0.277,1.554,0,1.886,0.946l3.05,8.762c0.278,0.946,0,1.558-0.941,1.89l-9.766,3.383l6.934,20.141l0.004,0.015l0,0
		l0.05,0.153l11.266-3.942c0.942-0.278,1.554,0,1.883,0.945l3.054,8.821c0.278,0.89,0,1.5-0.946,1.832l-21.469,7.434
		c-0.945,0.278-1.554,0-1.832-0.942l-22.973-66.473c-0.332-0.941,0-1.55,0.891-1.882l21.469-7.438c0.945-0.278,1.554,0,1.886,0.946
		l3.054,8.82c0.278,0.89,0,1.5-0.945,1.832l-11.031,3.805l-0.082,0.027l0,0l-0.148,0.051l4.863,14.042l0.019,0.066h0.004
		L308.848,257.778z M253.531,450.969c22.488,0.363,53.023-1.614,77.934-8.141c0.016-0.004,0.031-0.008,0.043-0.011
		c1.98-0.52,3.922-1.066,5.824-1.649c0.625-0.187,1.25-0.375,1.867-0.57c1.254-0.398,2.473-0.82,3.683-1.25
		c1.082-0.375,2.157-0.754,3.207-1.157c0.539-0.21,1.058-0.434,1.586-0.648c3.297-1.325,6.469-2.746,9.378-4.344l-2.934,34.25
		l-0.054,0.718v0.722c-0.11,5.77-28.574,20.918-91.883,20.918c-2.828,0-5.602-0.055-8.266-0.114
		c-25.41-0.718-51.71-4.492-70.406-10.207c-22.75-6.938-27.52-14.203-27.578-15.758v-0.664l-0.054-0.722l-2.606-31.626
		C178.183,445.309,222.848,450.469,253.531,450.969z" style="fill: rgb(75, 75, 75);"></path>
	<path class="st0" d="M123.922,34.898c-0.113,0.332-0.168,0.664-0.168,1c-0.109,1.664-0.332,4.438-0.554,7.711
		c-0.218,2.832-0.5,6.046-0.718,9.324c-19.754,7.484-32.016,17.254-32.016,29.234v41.949c0,8.543,6.215,15.981,16.977,22.246
		c1.832,1.054,3.828,2.11,5.938,3.11c5.05,2.442,10.766,4.66,17.144,6.714c31.902,10.207,78.898,15.422,125.504,15.422
		c46.328,0,92.934-5.16,124.836-15.258c6.328-1.996,12.043-4.16,17.09-6.546c2.11-1,4.106-2.051,5.993-3.106
		c11.098-6.328,17.59-13.871,17.59-22.582V82.168c0-11.981-12.262-21.75-32.016-29.234c-0.218-3.278-0.5-6.492-0.664-9.266
		c-0.222-3.332-0.445-6.106-0.554-7.77c0-0.336-0.054-0.668-0.168-1C384.859,15.371,326.438,0,256.027,0
		C185.562,0,127.141,15.371,123.922,34.898z M243.93,41.946c-2.55,0.386-5.102,0.832-7.711,1.277
		c-32.457,5.879-59.308,14.258-79.949,23.078c-0.778,0.336-1.554-0.274-1.554-1.106l1.109-18.812c0-0.333,0.11-0.555,0.332-0.778
		c0.946-0.887,2.278-1.832,3.887-2.774c10.32-6.215,33.73-13.926,67.519-15.703c0.5,0,0.946,0,1.386-0.054
		c0.782-0.051,1.61-0.051,2.446-0.11c3.383-0.11,6.824-0.164,10.43-0.164h0.942c4.996,0.054,7.602,4.047,7.492,7.93
		C250.145,38.062,248.148,41.282,243.93,41.946z" style="fill: rgb(75, 75, 75);"></path>
</g>
</svg>
